<svg width="562" height="481" viewBox="0 0 562 481" fill="none" xmlns="http://www.w3.org/2000/svg">
<path d="M353.68 359.238L358.673 360.132C363.979 361.078 367.51 366.147 366.562 371.452L365.646 376.575C364.699 381.879 359.63 385.411 354.327 384.464L349.331 383.57C344.027 382.623 340.495 377.553 341.442 372.249L342.358 367.127C343.306 361.821 348.375 358.289 353.68 359.238ZM386.904 221.393C399.881 223.711 408.867 230.121 413.865 240.615C417.845 248.906 418.951 258.001 417.182 267.904C414.221 284.467 403.905 298.878 386.234 311.136C380.071 315.41 376.203 320.975 374.624 327.829C374.041 330.103 373.497 332.649 372.994 335.467C372.045 340.771 366.977 344.303 361.673 343.354L356.678 342.462C351.373 341.513 347.841 336.445 348.789 331.141V331.139C351.491 316.027 357.21 305.468 365.95 299.451C375.394 292.945 382.357 285.777 386.842 277.943C389.419 273.382 391.189 268.412 392.151 263.033C393.141 257.483 392.682 252.909 390.771 249.306C388.692 245.148 384.99 242.944 379.662 242.696C374.688 242.425 370.583 245.172 367.352 250.937C367.188 251.215 367.029 251.501 366.873 251.792C364.583 256.053 359.494 257.971 354.953 256.309L350.5 254.679C344.989 252.662 342.476 246.254 345.169 241.041C347.843 235.858 351.372 231.462 355.753 227.85C360.501 223.943 366.561 221.588 373.929 220.791C377.796 220.339 382.122 220.537 386.904 221.393Z" fill="#AEDBED"/>
<path d="M164.028 379.678L168.176 379.876C172.581 380.086 175.983 383.827 175.772 388.232L175.57 392.486C175.36 396.891 171.618 400.292 167.214 400.084L163.066 399.886C158.661 399.675 155.26 395.935 155.47 391.53L155.672 387.274C155.882 382.869 159.624 379.468 164.028 379.678ZM176.452 264.296C187.227 264.809 195.196 269.062 200.36 277.054C204.464 283.36 206.321 290.626 205.93 298.85C205.276 312.606 198.423 325.39 185.374 337.204C180.824 341.323 178.272 346.247 177.714 351.976C177.479 353.883 177.307 356.007 177.195 358.347C176.985 362.752 173.245 366.153 168.839 365.945L164.692 365.747C160.285 365.536 156.886 361.796 157.094 357.391C157.692 344.84 161.221 335.665 167.679 329.86C174.657 323.583 179.552 317.031 182.366 310.199C183.976 306.224 184.888 302.006 185.1 297.54C185.321 292.931 184.464 289.266 182.532 286.544C180.407 283.389 177.17 281.991 172.82 282.351C168.754 282.655 165.713 285.317 163.698 290.338C163.596 290.582 163.496 290.83 163.399 291.083C161.991 294.783 158.064 296.875 154.203 296.005L150.417 295.153C145.73 294.097 143.016 289.163 144.65 284.647C146.274 280.157 148.673 276.218 151.847 272.824C155.29 269.153 159.96 266.602 165.856 265.178C168.948 264.401 172.479 264.107 176.452 264.296Z" fill="#AEDBED"/>
<path d="M237.185 213.654L240.348 213.1C243.708 212.509 246.908 214.755 247.497 218.114L248.066 221.358C248.655 224.715 246.411 227.917 243.052 228.506L239.889 229.061C236.531 229.651 233.329 227.406 232.74 224.046L232.171 220.804C231.582 217.445 233.827 214.243 237.185 213.654ZM226.975 124.504C235.191 123.062 241.925 124.918 247.176 130.071C251.342 134.132 253.978 139.298 255.078 145.568C256.919 156.056 253.918 166.863 246.08 177.991C243.346 181.869 242.256 186.017 242.808 190.433C242.955 191.913 243.186 193.544 243.498 195.327C244.088 198.687 241.843 201.887 238.485 202.476L235.322 203.031C231.963 203.621 228.762 201.375 228.172 198.016C226.493 188.448 227.598 180.928 231.485 175.454C235.683 169.534 238.265 163.759 239.227 158.129C239.767 154.858 239.739 151.519 239.141 148.114C238.525 144.6 237.257 141.981 235.338 140.256C233.2 138.235 230.52 137.729 227.299 138.74C224.285 139.659 222.441 142.183 221.774 146.314C221.737 146.515 221.705 146.719 221.675 146.927C221.241 149.956 218.632 152.203 215.572 152.202L212.572 152.2C208.858 152.199 205.971 148.937 206.438 145.252C206.902 141.591 208.043 138.212 209.861 135.115C211.836 131.758 214.926 129.043 219.132 126.967C221.331 125.858 223.946 125.035 226.975 124.504Z" fill="#AEDBED"/>
<path d="M5.77317 308.935L7.87295 309.477C10.1021 310.054 11.4405 312.33 10.8635 314.559L10.3058 316.711C9.72884 318.941 7.45359 320.28 5.22443 319.703L3.12465 319.16C0.895487 318.581 -0.442901 316.308 0.134093 314.078L0.691754 311.925C1.26875 309.696 3.54401 308.356 5.77317 308.935ZM24.4333 251.286C29.8864 252.7 33.506 255.723 35.2935 260.358C36.7182 264.02 36.8922 267.932 35.814 272.095C34.0117 279.054 29.1459 284.858 21.2152 289.504C18.4507 291.122 16.6201 293.366 15.7233 296.236C15.4006 297.186 15.0854 298.251 14.779 299.436C14.202 301.666 11.9268 303.005 9.69761 302.427L7.59932 301.884C5.37016 301.307 4.03029 299.032 4.60728 296.803C6.25201 290.451 9.03437 286.139 12.9558 283.862C17.1911 281.396 20.3928 278.571 22.5595 275.38C23.8057 273.521 24.7232 271.461 25.3077 269.199C25.9114 266.869 25.8653 264.905 25.1679 263.306C24.4199 261.466 22.9134 260.406 20.6516 260.128C18.5414 259.848 16.7033 260.883 15.1374 263.236C15.0586 263.351 14.9813 263.467 14.9054 263.585C13.7901 265.325 11.5595 265.975 9.67828 265.12L7.83577 264.28C5.55308 263.239 4.69056 260.428 6.00961 258.294C7.31826 256.174 8.96448 254.416 10.9483 253.02C13.1001 251.51 15.759 250.706 18.9251 250.606C20.5876 250.539 22.4242 250.767 24.4333 251.286Z" fill="#AEDBED"/>
<path d="M88.2469 318.133L94.7276 316.469C101.61 314.701 108.622 318.849 110.39 325.731L112.095 332.377C113.864 339.259 109.716 346.272 102.834 348.039L96.353 349.703C89.4708 351.47 82.4591 347.324 80.6909 340.441L78.9852 333.794C77.2171 326.912 81.3646 319.9 88.2469 318.133ZM52.6279 134.581C69.4634 130.258 83.7529 133.025 95.495 142.879C104.807 150.645 111.114 160.95 114.414 173.799C119.932 195.29 115.447 218.224 100.96 242.607C95.9084 251.107 94.3142 259.9 96.1746 268.986C96.7189 272.033 97.4609 275.385 98.4008 279.042C100.167 285.924 96.0214 292.936 89.1391 294.703L82.6569 296.367C75.7761 298.135 68.7629 293.989 66.9963 287.107C61.9609 267.498 63.0406 251.696 70.2307 239.693C77.9963 226.718 82.4249 214.307 83.5149 202.454C84.1098 195.571 83.5105 188.64 81.7185 181.661C79.8701 174.463 76.8141 169.226 72.5491 165.951C67.78 162.101 62.1305 161.484 55.6021 164.104C49.4887 166.501 46.0683 172.042 45.3486 180.73C45.3069 181.152 45.2713 181.584 45.243 182.019C44.8281 188.383 39.775 193.47 33.4161 193.962L27.1822 194.444C19.4672 195.043 12.9447 188.734 13.318 181.002C13.6898 173.323 15.5144 166.116 18.792 159.387C22.3491 152.099 28.3303 145.957 36.7323 140.965C41.1252 138.305 46.4223 136.175 52.6279 134.581Z" fill="#AEDBED"/>
<path d="M512.376 322.413L516.956 321.236C521.819 319.987 526.774 322.918 528.023 327.781L529.229 332.479C530.478 337.342 527.549 342.297 522.684 343.546L518.104 344.722C513.241 345.971 508.286 343.04 507.037 338.177L505.831 333.48C504.582 328.617 507.512 323.662 512.376 322.413ZM487.205 192.701C499.102 189.646 509.201 191.602 517.497 198.566C524.079 204.052 528.536 211.336 530.868 220.414C534.767 235.6 531.598 251.81 521.361 269.039C517.79 275.046 516.663 281.259 517.979 287.682C518.363 289.835 518.888 292.204 519.551 294.787C520.8 299.65 517.869 304.605 513.006 305.854L508.426 307.03C503.563 308.279 498.608 305.348 497.359 300.485C493.801 286.63 494.563 275.464 499.645 266.981C505.132 257.813 508.261 249.041 509.033 240.664C509.452 235.801 509.03 230.903 507.763 225.97C506.457 220.884 504.296 217.183 501.284 214.869C497.912 212.149 493.921 211.712 489.308 213.563C484.986 215.257 482.57 219.174 482.061 225.311C482.03 225.612 482.006 225.915 481.986 226.223C481.694 230.721 478.122 234.316 473.628 234.664L469.223 235.006C463.77 235.428 459.162 230.97 459.426 225.506C459.688 220.078 460.977 214.986 463.294 210.229C465.809 205.079 470.035 200.74 475.973 197.213C479.075 195.331 482.82 193.826 487.205 192.701Z" fill="#AEDBED"/>
<path d="M491.429 107.214L493.96 106.564C496.649 105.874 499.388 107.492 500.078 110.181L500.745 112.777C501.436 115.466 499.815 118.205 497.128 118.893L494.595 119.545C491.907 120.235 489.167 118.615 488.479 115.927L487.811 113.33C487.121 110.643 488.741 107.904 491.429 107.214ZM477.516 35.5164C484.092 33.8271 489.675 34.9082 494.259 38.7583C497.898 41.7905 500.361 45.816 501.65 50.835C503.805 59.2282 502.055 68.1879 496.395 77.7113C494.423 81.0335 493.8 84.4657 494.525 88.0154C494.738 89.2066 495.028 90.5152 495.395 91.9428C496.085 94.6315 494.466 97.3707 491.777 98.0607L489.246 98.7106C486.558 99.4006 483.818 97.7812 483.128 95.094C481.162 87.4339 481.583 81.2625 484.392 76.5737C487.426 71.5056 489.156 66.6577 489.581 62.0269C489.813 59.3397 489.579 56.6317 488.879 53.9059C488.158 51.0938 486.964 49.049 485.297 47.7686C483.435 46.2666 481.228 46.0242 478.677 47.0474C476.289 47.9842 474.954 50.1494 474.673 53.5415C474.656 53.7081 474.642 53.8761 474.631 54.0456C474.469 56.5321 472.496 58.5188 470.012 58.7107L467.576 58.8995C464.563 59.133 462.016 56.6689 462.162 53.6486C462.308 50.6491 463.02 47.834 464.3 45.2063C465.689 42.3585 468.025 39.9584 471.307 38.0103C473.024 36.9708 475.092 36.138 477.516 35.5164Z" fill="#AEDBED"/>
<path d="M151.783 151.921C151.783 151.921 166.431 80.5072 133.054 84.0256L101.147 150.46C101.147 150.46 122.535 159.227 151.783 151.921Z" fill="#361710"/>
<path d="M77.4173 151.921C77.4173 151.921 69.2978 94.01 94.4892 79.3145L128.053 150.46C128.053 150.46 106.667 159.227 77.4173 151.921Z" fill="#361710"/>
<path d="M25.7093 135.906H29.5936C33.7188 135.906 37.0633 139.251 37.0633 143.374V147.358C37.0633 151.485 33.7188 154.828 29.5936 154.828H25.7093C21.5841 154.828 18.2411 151.485 18.2411 147.358V143.374C18.2411 139.251 21.5841 135.906 25.7093 135.906ZM32.1841 27.5533C42.2741 27.5533 49.9088 31.1714 55.0884 38.4076C59.2047 44.1181 61.2628 50.8234 61.2628 58.5251C61.2628 71.4063 55.4289 83.6555 43.7641 95.2742C39.6954 99.3236 37.5302 104.038 37.264 109.417C37.1302 111.208 37.0633 113.198 37.0633 115.39C37.0633 119.517 33.7188 122.86 29.5936 122.86H25.7093C21.5841 122.86 18.2411 119.517 18.2411 115.39C18.2411 103.639 21.129 94.9099 26.9049 89.1994C33.1448 83.0235 37.4261 76.684 39.7519 70.1765C41.0784 66.3933 41.7432 62.4094 41.7432 58.2262C41.7432 53.9106 40.781 50.526 38.8552 48.0693C36.7302 45.2155 33.643 44.0511 29.5936 44.582C25.8089 45.0475 23.0861 47.6707 21.4279 52.4503C21.3417 52.6823 21.2599 52.9187 21.1811 53.1596C20.0301 56.6796 16.4536 58.8091 12.8072 58.1696L9.23225 57.5406C4.80665 56.7614 2.05106 52.2733 3.37755 47.9801C4.69512 43.7151 6.76218 39.9274 9.57577 36.6142C12.6303 33.0303 16.8789 30.4412 22.3247 28.8486C25.1784 27.986 28.4634 27.5533 32.1841 27.5533Z" fill="#FCC822"/>
<path d="M118.639 429.279C118.639 429.279 116.79 436.422 113.465 435.345C107.249 433.338 106.886 429.279 106.886 429.279C106.886 429.279 102.966 441.099 103.713 446.728C104.459 452.356 103.713 465.011 103.713 465.011H109.386C109.386 465.011 114.692 465.657 116.891 468.856C119.092 472.054 131.145 471.106 134.965 469.053C139.86 466.426 127.014 453.054 122.469 445.602C117.925 438.15 118.639 429.279 118.639 429.279Z" fill="#1C0906"/>
<path d="M108.022 324.094C111.942 314.411 125.926 314.52 129.375 324.378C129.997 326.155 130.447 328.015 130.742 329.898C132.192 339.143 130.736 353.96 126.918 372.885C121.767 398.419 118.983 449.355 110.038 450.104C101.092 450.854 106.35 408.022 106.163 382.696C105.977 357.367 101.986 339.003 107.65 325.016L108.022 324.094Z" fill="#CF9166"/>
<path d="M113.168 397.156C111.944 363.745 114.168 338.961 108.838 321.345L108.488 320.186C104.799 307.994 93.5207 310.165 91.2707 323.66C90.8662 326.092 90.6045 328.608 90.4677 331.134C89.8015 343.529 91.7793 362.848 95.8867 387.238C101.431 420.146 102.778 450.415 110.038 450.104C117.296 449.793 114.392 430.566 113.168 397.156Z" fill="#EDAC7C"/>
<path d="M103.033 435.154C103.033 435.154 104.615 447.772 109.018 447.009C113.349 446.258 114.784 435.154 114.784 435.154C114.784 435.154 118.705 446.972 117.959 452.601C117.538 455.773 117.591 461.176 117.718 465.289C117.811 468.354 115.353 470.885 112.285 470.885C112.285 470.885 106.979 471.53 104.779 474.729C102.579 477.929 90.5262 476.98 86.7058 474.928C81.8103 472.3 94.6574 458.929 99.2019 451.477C103.746 444.023 103.033 435.154 103.033 435.154Z" fill="#361710"/>
<path d="M140.56 243.703L112.158 238.561V238.363L111.613 238.463L111.068 238.363V238.561L82.6671 243.703C82.6671 243.703 72.6232 258.662 74.5892 276.259C76.5536 293.854 85.6115 389.019 85.6115 389.019H134.504C134.504 389.019 146.672 293.854 148.638 276.259C150.602 258.662 140.56 243.703 140.56 243.703Z" fill="#195172"/>
<path d="M143.944 250.041C142.152 246.078 140.56 243.702 140.56 243.702L112.158 238.559V238.361L111.613 238.461L111.069 238.361V238.559L82.6671 243.702C82.6671 243.702 81.0744 246.078 79.2839 250.041H143.944Z" fill="#0D435E"/>
<path d="M117.721 389.018L118.053 293.949L126.195 389.018" fill="#0D435E"/>
<path d="M74.3542 270.582C77.1098 270.5 81.7526 269.953 88.4727 267.827C100.255 264.102 100.355 248.549 100.355 248.549L100.039 240.559L82.6671 243.704C82.6671 243.704 74.7141 255.562 74.3542 270.582Z" fill="#0D435E"/>
<path d="M148.873 270.584C148.515 255.562 140.56 243.703 140.56 243.703L121.992 240.341L121.518 248.548C121.518 248.548 121.618 264.101 133.4 267.827C141.386 270.353 146.439 270.652 148.873 270.584Z" fill="#0D435E"/>
<path d="M84.2534 163.028L104.43 154.828L120.265 154.999L145.006 165.318C145.006 165.318 132.11 209.648 132.959 221.087C133.808 232.526 140.559 245.471 140.559 245.471H84.2534C84.2534 245.471 94.3344 225.074 92.1216 213.042C89.9074 201.008 84.2534 163.028 84.2534 163.028Z" fill="#5C93BC"/>
<path d="M131.591 93.7221C124.744 80.9123 88.5496 76.3751 81.8948 116.649C77.0424 145.998 110.062 152.919 126.799 147.545C155.274 138.402 138.439 106.532 131.591 93.7221Z" fill="#3E150D"/>
<path d="M137.483 120.969C137.483 120.969 142.6 114.397 147.31 118.714C152.021 123.034 145.289 136.341 136.268 133.21L137.483 120.969Z" fill="#EDAC7C"/>
<path d="M137.023 125.607L136.396 131.909C144.199 133.31 148.651 122.445 145.063 120.939C142.16 119.721 138.558 123.533 137.023 125.607Z" fill="#F7A588"/>
<path d="M146.32 123.19C146.32 123.19 146.305 123.141 146.281 123.051C146.257 122.961 146.214 122.833 146.164 122.673C146.046 122.361 145.845 121.909 145.463 121.584C145.368 121.503 145.256 121.437 145.142 121.382C145.082 121.357 145.024 121.329 144.957 121.308L144.914 121.293L144.911 121.291C144.946 121.303 144.919 121.294 144.925 121.297L144.919 121.294L144.901 121.291L144.871 121.284L144.748 121.25C144.659 121.223 144.592 121.214 144.525 121.204C144.461 121.192 144.389 121.181 144.306 121.177C144.232 121.172 144.154 121.168 144.079 121.169C143.997 121.169 143.919 121.166 143.839 121.177C143.198 121.221 142.52 121.471 141.875 121.818C141.546 121.986 141.234 122.19 140.924 122.395C140.62 122.603 140.319 122.819 140.035 123.036C139.469 123.474 138.953 123.916 138.506 124.297C137.616 125.083 137.024 125.608 137.024 125.608C137.024 125.608 137.1 125.423 137.266 125.113C137.436 124.807 137.69 124.374 138.045 123.889C138.225 123.648 138.422 123.385 138.651 123.125C138.878 122.863 139.131 122.594 139.408 122.331C139.962 121.806 140.612 121.288 141.362 120.888C141.736 120.691 142.133 120.52 142.548 120.404C142.965 120.288 143.402 120.225 143.829 120.241C143.934 120.243 144.038 120.252 144.146 120.267C144.25 120.273 144.351 120.296 144.452 120.319C144.551 120.338 144.653 120.368 144.755 120.402C144.861 120.435 144.959 120.468 145.027 120.505L145.145 120.56L145.219 120.594L145.286 120.63C145.374 120.676 145.454 120.731 145.531 120.789C145.682 120.908 145.814 121.039 145.917 121.177C146.132 121.448 146.238 121.739 146.299 121.99C146.363 122.24 146.37 122.463 146.373 122.639C146.373 122.816 146.352 122.957 146.342 123.049C146.327 123.143 146.32 123.19 146.32 123.19Z" fill="#CF9166"/>
<path d="M90.0405 120.455C90.0405 120.455 85.0661 113.778 80.2658 117.992C75.461 122.207 81.906 135.658 90.9937 132.722L90.0405 120.455Z" fill="#EDAC7C"/>
<path d="M90.4011 125.106L90.8918 131.42C83.0623 132.655 78.8449 121.696 82.4659 120.267C85.3911 119.113 88.9125 122.999 90.4011 125.106Z" fill="#F7A588"/>
<path d="M81.1609 122.489C81.1609 122.489 81.1743 122.443 81.2011 122.352C81.2278 122.262 81.2725 122.135 81.329 121.975C81.4494 121.664 81.6591 121.218 82.0517 120.901C82.1469 120.822 82.2569 120.76 82.3759 120.706C82.4369 120.684 82.4948 120.656 82.5573 120.638L82.6079 120.623L82.6108 120.621C82.5737 120.635 82.6034 120.623 82.596 120.626H82.6034L82.6183 120.62L82.648 120.612L82.7744 120.583C82.8607 120.557 82.9306 120.55 82.9975 120.541C83.0629 120.529 83.1358 120.523 83.2161 120.52C83.2919 120.516 83.3663 120.513 83.4451 120.517C83.5239 120.517 83.6027 120.519 83.683 120.531C84.321 120.587 84.9961 120.85 85.6341 121.213C85.9568 121.39 86.2676 121.597 86.5725 121.81C86.8714 122.025 87.1673 122.247 87.4469 122.471C88.0045 122.922 88.5102 123.374 88.9489 123.762C89.8218 124.57 90.4017 125.106 90.4017 125.106C90.4017 125.106 90.3289 124.919 90.1683 124.607C90.0092 124.297 89.7623 123.857 89.4158 123.365C89.2433 123.121 89.05 122.853 88.8269 122.589C88.6038 122.323 88.3614 122.047 88.0893 121.777C87.5465 121.243 86.9086 120.711 86.168 120.293C85.7992 120.09 85.4021 119.911 84.9887 119.786C84.5753 119.659 84.1411 119.588 83.7158 119.594C83.6072 119.592 83.5031 119.603 83.3975 119.613C83.2919 119.618 83.1908 119.635 83.0867 119.659C82.9901 119.674 82.8889 119.701 82.7833 119.735C82.6792 119.766 82.5811 119.796 82.5097 119.833L82.3922 119.882L82.3179 119.916L82.2495 119.951C82.1603 119.994 82.077 120.049 81.9982 120.104C81.848 120.221 81.7141 120.348 81.6056 120.483C81.3855 120.752 81.2739 121.041 81.207 121.288C81.1371 121.537 81.1252 121.759 81.1193 121.937C81.1148 122.116 81.1312 122.256 81.1416 122.348C81.1535 122.44 81.1609 122.489 81.1609 122.489Z" fill="#CF9166"/>
<path d="M119.208 141.178L106.364 141.036C106.364 141.036 105.653 161.144 105.605 161.144C105.605 161.144 106.505 165.165 112.202 165.315C117.901 165.464 119.35 161.289 119.35 161.289C119.304 161.179 119.208 141.178 119.208 141.178Z" fill="#EDAC7C"/>
<path d="M119.351 148.579L105.961 148.131C105.961 148.131 105.885 155.531 105.837 155.531C105.837 155.531 106.557 160.233 112.256 160.383C117.954 160.532 119.294 156.212 119.294 156.212C119.249 156.1 119.351 148.579 119.351 148.579Z" fill="#CF9166"/>
<path d="M119.167 144.875L106.323 144.736C106.323 144.736 106.133 147.302 105.962 149.487C105.935 149.802 109.62 150.401 110.02 150.468C113.158 151.001 116.259 150.63 119.327 149.884C119.251 147.647 119.167 144.875 119.167 144.875Z" fill="#CF9166"/>
<path d="M144.034 115.735C143.861 131.751 129.824 144.586 112.683 144.402C95.5408 144.217 81.7852 131.082 81.9562 115.066C82.1287 99.0469 96.1654 86.2117 113.309 86.3961C130.449 86.582 144.208 99.7161 144.034 115.735Z" fill="#3E150D"/>
<path d="M140.737 115.306C140.523 106.38 136.777 97.9144 127.997 94.3558C123.533 92.5445 118.615 92.0225 113.817 92.0478C109.076 92.0746 104.025 92.3274 99.5508 93.9959C91.5383 96.9894 89.3627 92.1043 88.463 100.246C88.3738 101.043 87.315 104.453 86.2294 114.719C86.0346 116.548 85.984 118.365 86.0316 120.212C86.1416 124.361 86.7558 128.528 88.0674 132.48C89.6556 137.276 92.3473 141.741 96.297 145.02C98.541 146.885 101.132 148.321 103.883 149.326C108.426 150.981 112.764 151.56 117.542 150.733C120.781 150.174 123.944 149.151 126.799 147.546C131.537 144.884 135.109 140.706 137.363 135.855C139.258 131.773 140.27 127.32 140.673 122.863C140.894 120.423 140.968 117.941 140.755 115.501C140.749 115.435 140.739 115.371 140.737 115.306Z" fill="#EDAC7C"/>
<path d="M121.777 123.748C121.65 126.282 123.436 128.428 125.764 128.542C128.092 128.657 130.081 126.692 130.208 124.157C130.335 121.623 128.552 119.477 126.222 119.364C123.894 119.249 121.903 121.214 121.777 123.748Z" fill="#CF9166"/>
<path d="M121.83 122.676C121.702 125.211 123.488 127.356 125.815 127.472C128.145 127.586 130.134 125.622 130.26 123.088C130.389 120.554 128.605 118.405 126.275 118.292C123.947 118.18 121.956 120.142 121.83 122.676Z" fill="black"/>
<path d="M123.339 121.504C123.293 122.422 124.014 123.204 124.946 123.248C125.882 123.294 126.676 122.588 126.721 121.669C126.768 120.752 126.047 119.972 125.115 119.926C124.181 119.879 123.385 120.586 123.339 121.504Z" fill="white"/>
<path d="M96.6345 122.758C96.5081 125.292 98.2926 127.438 100.62 127.553C102.95 127.667 104.938 125.701 105.065 123.169C105.193 120.635 103.41 118.487 101.079 118.374C98.7536 118.263 96.7609 120.223 96.6345 122.758Z" fill="#CF9166"/>
<path d="M96.6888 121.686C96.5609 124.221 98.3484 126.366 100.674 126.482C103.005 126.595 104.993 124.633 105.119 122.096C105.249 119.564 103.463 117.415 101.134 117.303C98.8079 117.19 96.8152 119.153 96.6888 121.686Z" fill="black"/>
<path d="M98.198 120.514C98.1533 121.431 98.8701 122.214 99.8055 122.258C100.739 122.304 101.535 121.598 101.581 120.677C101.626 119.76 100.907 118.979 99.9706 118.934C99.0382 118.888 98.2441 119.595 98.198 120.514Z" fill="white"/>
<path d="M111.491 119.964C111.491 119.964 112.109 125.543 109.481 125.079C104.396 124.19 104.382 135.089 112.062 131.031C114.96 129.501 114.005 120.04 114.005 120.04L111.491 119.964Z" fill="#F48470"/>
<path d="M106.102 135.939C106.102 135.939 116.335 137.641 121.198 131.778C121.198 131.778 125.286 142.732 114.299 144.138C107.359 145.022 106.102 135.939 106.102 135.939Z" fill="#B43128"/>
<path d="M109.581 142.847C110.744 143.806 112.281 144.394 114.298 144.138C116.791 143.817 118.504 143.006 119.671 141.947C120.006 141.628 120.303 141.286 120.574 140.93C120.581 140.923 120.587 140.914 120.592 140.906C120.598 140.9 120.598 140.897 120.601 140.894C121.438 139.709 121.798 138.352 121.905 137.052C115.731 135.437 111.305 140.264 109.581 142.847Z" fill="#F05736"/>
<path d="M106.102 135.939C106.102 135.939 106.116 136.018 106.138 136.156C107.134 136.362 108.978 138.527 111.46 138.441C113.031 138.389 114.57 137.954 115.982 137.29C116.86 136.878 117.764 136.481 118.522 135.872C119.104 135.408 119.522 134.033 119.767 133.182C114.579 137.348 106.104 135.939 106.102 135.939Z" fill="white"/>
<path d="M106.786 136.583C107.23 138.632 108.941 144.269 114.229 143.593C117.159 143.221 119.217 142.103 120.347 140.277C121.907 137.754 121.35 134.446 120.947 132.872C116.551 137.232 109.197 136.846 106.786 136.583ZM113.281 144.742C106.828 144.674 105.564 136.107 105.554 136.013C105.528 135.844 105.588 135.67 105.716 135.549C105.844 135.429 106.019 135.372 106.196 135.402C106.294 135.417 116.171 136.98 120.767 131.433C120.893 131.283 121.092 131.205 121.29 131.239C121.488 131.272 121.651 131.406 121.721 131.592C121.802 131.808 123.684 136.975 121.302 140.84C119.989 142.965 117.657 144.26 114.372 144.678C113.99 144.727 113.63 144.747 113.281 144.742Z" fill="#F05B4E"/>
<path d="M102.121 135.342C102.095 137.681 100.147 139.556 97.7678 139.529C95.3884 139.504 93.4775 137.587 93.5013 135.248C93.5281 132.909 95.4777 131.035 97.857 131.059C100.236 131.087 102.146 133.002 102.121 135.342Z" fill="#F49B77"/>
<path d="M133.054 132.952C133.029 135.291 131.079 137.168 128.697 137.141C126.32 137.116 124.411 135.2 124.435 132.86C124.461 130.522 126.41 128.647 128.789 128.672C131.168 128.699 133.079 130.616 133.054 132.952Z" fill="#F49B77"/>
<path d="M93.7333 111.184C93.7333 111.184 93.8285 111.009 94.0515 110.736C94.1645 110.606 94.3013 110.435 94.4798 110.271C94.6523 110.097 94.859 109.916 95.0984 109.728C95.3364 109.542 95.6055 109.355 95.9015 109.174C96.2004 109 96.5201 108.812 96.8711 108.665C97.2116 108.497 97.5834 108.368 97.9641 108.241C98.3448 108.11 98.7463 108.037 99.1404 107.935C99.5404 107.872 99.9449 107.811 100.34 107.773C100.739 107.75 101.133 107.74 101.508 107.741C101.889 107.762 102.253 107.795 102.595 107.828C102.941 107.868 103.26 107.947 103.554 108.005C103.846 108.072 104.112 108.128 104.344 108.217C104.574 108.296 104.775 108.373 104.937 108.436C105.26 108.561 105.441 108.65 105.441 108.65C105.441 108.65 105.236 108.678 104.891 108.702C104.718 108.716 104.51 108.733 104.274 108.739C104.042 108.741 103.774 108.772 103.486 108.796C103.2 108.821 102.892 108.821 102.57 108.857C102.245 108.892 101.909 108.925 101.56 108.95C101.213 108.997 100.859 109.05 100.494 109.09C100.137 109.151 99.7754 109.212 99.411 109.276C99.2296 109.315 99.0511 109.356 98.8727 109.394C98.6913 109.432 98.5128 109.462 98.3403 109.514C98.1648 109.562 97.9893 109.605 97.8168 109.646C97.6414 109.685 97.4822 109.749 97.3127 109.794C96.9766 109.884 96.6614 109.996 96.355 110.096C96.2004 110.142 96.0591 110.207 95.9163 110.255C95.7736 110.307 95.6323 110.351 95.5029 110.409C95.2397 110.512 94.9958 110.609 94.7847 110.702C94.5646 110.79 94.3817 110.881 94.221 110.949C94.0738 111.025 93.943 111.076 93.8641 111.12C93.7779 111.162 93.7333 111.184 93.7333 111.184Z" fill="black"/>
<path d="M130.4 117.307C130.4 117.307 130.283 117.145 130.029 116.904C129.896 116.789 129.743 116.636 129.547 116.493C129.352 116.346 129.12 116.193 128.864 116.037C128.604 115.882 128.313 115.732 127.994 115.591C127.673 115.455 127.334 115.311 126.967 115.211C126.607 115.088 126.222 115.006 125.829 114.929C125.437 114.847 125.029 114.826 124.625 114.779C124.217 114.765 123.813 114.756 123.413 114.77C123.014 114.798 122.623 114.838 122.247 114.887C121.875 114.957 121.518 115.036 121.18 115.112C120.847 115.195 120.541 115.315 120.257 115.412C119.974 115.515 119.716 115.605 119.5 115.721C119.28 115.83 119.093 115.933 118.941 116.016C118.632 116.182 118.466 116.291 118.466 116.291C118.466 116.291 118.673 116.295 119.018 116.276C119.189 116.266 119.399 116.255 119.635 116.233C119.867 116.205 120.134 116.2 120.424 116.185C120.709 116.175 121.014 116.136 121.343 116.129C121.667 116.123 122.004 116.114 122.352 116.095C122.703 116.098 123.065 116.104 123.429 116.095C123.792 116.108 124.158 116.126 124.528 116.141C124.711 116.157 124.894 116.172 125.077 116.187C125.258 116.203 125.441 116.209 125.621 116.24C125.799 116.267 125.978 116.285 126.155 116.304C126.333 116.321 126.504 116.362 126.674 116.386C127.02 116.432 127.346 116.504 127.664 116.563C127.823 116.587 127.969 116.634 128.118 116.663C128.266 116.697 128.414 116.724 128.548 116.762C128.821 116.834 129.077 116.896 129.3 116.962C129.529 117.023 129.721 117.088 129.884 117.136C130.044 117.192 130.179 117.225 130.265 117.259C130.353 117.289 130.4 117.307 130.4 117.307Z" fill="black"/>
<path d="M140.37 128.624C140.37 128.624 141.046 127.376 142.334 124.997C147.153 116.085 149.187 105.628 146.587 95.8365C145.19 90.5722 142.311 88.0114 139.967 86.7697C137.565 85.4997 126.644 78.6025 120.089 76.6113C108.256 73.017 95.6543 76.7585 86.8002 82.9062C77.946 89.0539 66.3957 109.195 75.9726 109.402C85.5495 109.61 100.107 96.1369 95.7807 99.6093C89.5885 104.582 95.6499 105.109 109.508 105.583C123.365 106.056 131.581 101.235 131.581 101.235C131.581 101.235 131.059 105.476 133.101 111.759C135.141 118.043 140.804 125.201 140.804 125.201" fill="#361710"/>
<path d="M96.9844 157.855L100.354 243.498C100.354 243.498 100.255 259.052 88.4723 262.779C76.69 266.505 71.2695 265.387 71.2695 265.387C71.2695 265.387 84.0764 210.183 81.5082 197.821C78.94 185.458 75.0051 165.707 75.0051 165.707L96.9844 157.855Z" fill="#122738"/>
<path d="M126.483 157.626L121.519 243.498C121.519 243.498 121.618 259.052 133.401 262.779C145.183 266.505 150.603 265.387 150.603 265.387C150.603 265.387 137.795 210.183 140.363 197.821C142.933 185.458 146.868 165.708 146.868 165.708L126.483 157.626Z" fill="#122738"/>
<path d="M160.094 182.15C160.094 182.15 183.867 210.298 183.91 219.153C183.952 228.01 171.481 225.215 171.481 225.215L148.95 193.055L160.094 182.15Z" fill="#EDAC7C"/>
<path d="M160.094 182.149L148.95 193.054L157.907 205.839C157.907 205.839 163.219 197.917 172.843 198.513C166.623 189.881 160.094 182.149 160.094 182.149Z" fill="#CF9166"/>
<path d="M73.6363 184.824C73.6363 184.824 41.8764 203.499 33.1412 202.043C24.4045 200.589 29.2673 188.769 29.2673 188.769L64.7732 171.998L73.6363 184.824Z" fill="#EDAC7C"/>
<path d="M47.3161 198.31C59.3601 193.216 73.6362 184.825 73.6362 184.825L64.7731 171.999L47.3071 180.248C47.3071 180.248 53.7834 194.331 47.3161 198.31" fill="#CF9166"/>
<path d="M178.539 225.381C178.603 225.345 178.666 225.307 178.73 225.268C181.23 223.756 183.071 221.312 184.329 218.671C187.008 213.053 188.423 206.544 190.461 200.649C192.046 196.057 193.485 191.105 195.428 186.485C195.13 186.349 194.851 186.175 194.602 185.942C192.132 183.629 190.917 182.06 188.074 180.222C187.259 187.317 177.301 201.247 173.145 212.317C172.324 214.504 171.609 216.769 171.528 219.104C171.38 223.495 173.766 228.141 178.539 225.381Z" fill="#EEC9B1"/>
<path d="M173.26 227.207C174.499 227.95 176.56 228.496 179.394 226.862L179.614 226.731C182.159 225.192 184.321 222.658 185.872 219.407C187.685 215.604 188.931 211.429 190.137 207.39C190.75 205.332 191.385 203.203 192.075 201.208C192.56 199.807 193.029 198.372 193.504 196.925C194.573 193.668 195.677 190.303 197.003 187.146L197.647 185.611L196.13 184.926C195.983 184.859 195.865 184.784 195.77 184.695C195.116 184.082 194.551 183.522 194.02 182.997C192.519 181.51 191.226 180.225 189.001 178.787L186.69 177.292L186.375 180.027C185.957 183.678 182.678 189.707 179.207 196.091C176.356 201.33 173.412 206.746 171.545 211.717C170.742 213.853 169.91 216.394 169.82 219.046C169.697 222.676 171.047 225.877 173.26 227.207Z" fill="#EDAC7C"/>
<path d="M193.681 181.751C193.684 181.74 195.571 176.042 196.298 175.82C197.028 175.598 198.322 176.116 198.322 176.116L196.139 184.288C196.139 184.288 199.181 177.447 200.37 176.859C201.555 176.271 202.881 176.892 202.881 176.892L199.253 186.301C199.253 186.301 201.399 179.505 202.667 178.436C203.937 177.37 205.441 177.823 205.441 177.823L202.377 187.97L202.102 186.686C202.102 186.686 204.196 183.092 205.478 182.818C206.758 182.542 207.991 182.851 207.991 182.851C207.991 182.851 205.687 186.508 204.694 188.857C203.701 191.207 201.898 191.641 201.898 191.641C197.858 190.404 194.412 187.387 191.09 184.808C188.522 182.812 186.69 177.291 186.69 177.291C186.69 177.291 190.174 174.067 193.681 181.751Z" fill="#EDAC7C"/>
<path d="M30.1294 198.512C30.0818 198.456 30.0343 198.399 29.9882 198.341C28.1546 196.066 27.2578 193.142 26.9753 190.229C26.376 184.035 27.2653 177.433 27.3619 171.196C27.4378 166.339 27.7754 161.192 27.527 156.186C27.8512 156.161 28.1754 156.093 28.4877 155.959C31.5987 154.626 33.2761 153.568 36.576 152.811C34.9209 159.757 39.5264 176.247 39.6573 188.071C39.6825 190.409 39.5814 192.781 38.8602 195.004C37.5025 199.183 33.6732 202.737 30.1294 198.512Z" fill="#EEC9B1"/>
<path d="M34.4682 202.03C33.0495 202.307 30.9274 202.118 28.8202 199.612L28.6566 199.413C26.7903 197.099 25.6214 193.98 25.2734 190.393C24.8675 186.201 25.1218 181.852 25.3671 177.645C25.492 175.5 25.6214 173.283 25.6541 171.17C25.6764 169.689 25.724 168.179 25.7716 166.658C25.8787 163.232 25.9887 159.691 25.8207 156.27L25.7374 154.608L27.397 154.482C27.5591 154.471 27.6944 154.44 27.8149 154.388C28.6402 154.037 29.36 153.702 30.0396 153.388C31.9565 152.502 33.6116 151.738 36.1932 151.144L38.8759 150.527L38.2394 153.207C37.3858 156.781 38.4119 163.568 39.496 170.752C40.3868 176.648 41.3073 182.745 41.3668 188.056C41.3921 190.337 41.3073 193.008 40.4864 195.531C39.3637 198.986 37.0022 201.536 34.4682 202.03Z" fill="#EDAC7C"/>
<path d="M30.7831 152.335C30.7831 152.323 30.9556 146.322 30.3473 145.866C29.7361 145.409 28.3427 145.452 28.3427 145.452L27.6066 153.88C27.6066 153.88 27.0817 146.412 26.1656 145.454C25.2511 144.496 23.7922 144.627 23.7922 144.627L23.993 154.71C23.993 154.71 24.2949 147.589 23.4665 146.153C22.6382 144.716 21.0708 144.629 21.0708 144.629L20.4879 155.212L21.1838 154.1C21.1838 154.1 20.4418 150.009 19.3309 149.311C18.2201 148.616 16.9575 148.485 16.9575 148.485C16.9575 148.485 17.8736 152.71 18.0059 155.257C18.1383 157.804 19.6834 158.826 19.6834 158.826C23.9052 159.043 28.1732 157.382 32.1765 156.09C35.2711 155.092 38.8758 150.526 38.8758 150.526C38.8758 150.526 36.7017 146.308 30.7831 152.335Z" fill="#EDAC7C"/>
<path d="M146.867 165.706C146.867 165.706 166.225 181.18 170.841 190.238L150.491 204.927L135.089 182.151L146.867 165.706Z" fill="#122738"/>
<path d="M75.0077 165.706C75.0077 165.706 58.3596 173.864 48.4139 179.143L57.3841 201.1L85.8115 190.619L75.0077 165.706Z" fill="#122738"/>
<path d="M113.807 467.947C111.052 468.522 106.805 466.915 103.617 471.849C100.545 476.605 93.3218 476.531 92.8013 476.52C97.627 477.139 103.331 476.835 104.778 474.731C106.979 471.531 112.285 470.887 112.285 470.887C115.353 470.887 117.811 468.354 117.718 465.29C117.712 465.111 117.707 464.916 117.703 464.732C116.711 466.091 115.294 467.638 113.807 467.947Z" fill="#1C0906"/>
<path d="M405.289 86.0697L407.579 86.8816C410.012 87.7427 411.285 90.4135 410.424 92.8464L409.591 95.196C408.73 97.6274 406.059 98.9018 403.626 98.0393L401.336 97.2288C398.905 96.3663 397.63 93.6955 398.493 91.2626L399.324 88.9145C400.185 86.4816 402.856 85.2086 405.289 86.0697ZM431.738 23.5283C437.69 25.6355 441.436 29.3652 442.978 34.7142C444.212 38.9421 444.026 43.326 442.417 47.8676C439.727 55.4622 433.728 61.4671 424.422 65.8808C421.177 67.42 418.915 69.7458 417.635 72.8628C417.183 73.8918 416.726 75.0518 416.268 76.3441C415.407 78.7769 412.736 80.0499 410.305 79.1889L408.015 78.3769C405.582 77.5159 404.307 74.8451 405.17 72.4122C407.624 65.4823 411.151 60.9392 415.751 58.777C420.719 56.4393 424.568 53.5959 427.298 50.244C428.871 48.29 430.097 46.0786 430.97 43.613C431.871 41.0686 432.011 38.8707 431.389 37.0207C430.73 34.8927 429.154 33.5618 426.656 33.0294C424.327 32.5133 422.173 33.4919 420.196 35.9634C420.097 36.0824 419.999 36.2043 419.903 36.3307C418.488 38.1643 415.935 38.6744 413.919 37.5338L411.942 36.417C409.494 35.034 408.807 31.8114 410.486 29.557C412.153 27.3174 414.164 25.5151 416.515 24.1499C419.064 22.6732 422.111 22.0338 425.655 22.2316C427.518 22.3208 429.546 22.752 431.738 23.5283Z" fill="#FCC822"/>
<path d="M245.32 92.9806L248.668 93.6349C252.225 94.3309 254.543 97.7795 253.847 101.334L253.175 104.769C252.479 108.324 249.032 110.643 245.476 109.947L242.128 109.293C238.572 108.597 236.253 105.15 236.949 101.594L237.622 98.1587C238.318 94.603 241.763 92.2832 245.32 92.9806ZM269.181 0.663116C277.88 2.36584 283.852 6.7736 287.096 13.8849C289.68 19.5032 290.324 25.6315 289.025 32.2699C286.852 43.3755 279.756 52.9495 267.74 60.9976C263.549 63.8038 260.886 67.5007 259.75 72.0914C259.332 73.6156 258.938 75.3213 258.569 77.21C257.873 80.7656 254.426 83.0855 250.869 82.388L247.521 81.7337C243.964 81.0377 241.646 77.5907 242.342 74.035C244.325 63.9034 248.287 56.865 254.231 52.9167C260.651 48.6473 265.412 43.9034 268.515 38.6852C270.298 35.6471 271.542 32.3249 272.247 28.7187C272.976 24.9995 272.717 21.9182 271.471 19.4749C270.121 16.6568 267.657 15.1326 264.076 14.908C260.734 14.6701 257.944 16.471 255.708 20.3121C255.596 20.498 255.485 20.6884 255.376 20.8832C253.789 23.722 250.347 24.9548 247.312 23.7875L244.336 22.6424C240.652 21.2252 239.033 16.8903 240.902 13.4135C242.757 9.95895 245.178 7.04127 248.164 4.66191C251.4 2.08626 255.499 0.570908 260.463 0.11586C263.069 -0.145874 265.975 0.0355606 269.181 0.663116Z" fill="#FCC822"/>
<path d="M191.333 152.439L193.687 151.835C196.185 151.193 198.732 152.699 199.373 155.198L199.993 157.613C200.636 160.111 199.129 162.658 196.63 163.299L194.276 163.905C191.777 164.546 189.23 163.041 188.589 160.539L187.969 158.126C187.326 155.627 188.833 153.081 191.333 152.439ZM178.396 85.777C184.511 84.2066 189.7 85.2119 193.965 88.7898C197.346 91.6108 199.636 95.3524 200.835 100.02C202.84 107.825 201.211 116.155 195.95 125.01C194.115 128.097 193.535 131.29 194.212 134.589C194.409 135.696 194.679 136.914 195.019 138.242C195.661 140.742 194.155 143.287 191.655 143.928L189.303 144.534C186.803 145.175 184.257 143.67 183.615 141.17C181.787 134.05 182.178 128.309 184.789 123.952C187.61 119.24 189.218 114.732 189.613 110.427C189.829 107.927 189.612 105.41 188.962 102.876C188.29 100.261 187.181 98.3593 185.631 97.1696C183.899 95.7717 181.848 95.5472 179.476 96.4989C177.256 97.3704 176.014 99.3824 175.752 102.537C175.737 102.691 175.724 102.846 175.714 103.005C175.563 105.317 173.728 107.164 171.419 107.343L169.155 107.518C166.352 107.734 163.985 105.444 164.12 102.636C164.255 99.8479 164.917 97.2306 166.108 94.7858C167.401 92.1388 169.572 89.9081 172.623 88.0954C174.219 87.1287 176.142 86.3554 178.396 85.777Z" fill="#FCC822"/>
<path d="M551.668 152.757L554.022 152.153C556.521 151.51 559.068 153.017 559.709 155.515L560.329 157.93C560.972 160.43 559.465 162.976 556.967 163.618L554.611 164.222C552.113 164.865 549.565 163.358 548.925 160.858L548.304 158.445C547.662 155.947 549.168 153.399 551.668 152.757ZM538.732 86.0961C544.847 84.5257 550.035 85.531 554.3 89.1089C557.682 91.93 559.972 95.6715 561.171 100.338C563.175 108.144 561.547 116.474 556.286 125.329C554.451 128.416 553.871 131.607 554.547 134.909C554.745 136.015 555.014 137.233 555.355 138.559C555.997 141.059 554.491 143.607 551.992 144.248L549.638 144.853C547.139 145.494 544.593 143.989 543.95 141.489C542.123 134.369 542.514 128.629 545.125 124.27C547.946 119.559 549.554 115.051 549.949 110.745C550.165 108.245 549.948 105.729 549.298 103.195C548.626 100.579 547.516 98.6784 545.967 97.4887C544.234 96.0909 542.184 95.8663 539.813 96.818C537.593 97.688 536.35 99.7 536.088 102.856C536.073 103.009 536.06 103.165 536.051 103.324C535.899 105.635 534.064 107.483 531.755 107.662L529.491 107.837C526.689 108.053 524.321 105.761 524.456 102.955C524.591 100.165 525.253 97.5482 526.444 95.1034C527.736 92.4564 529.908 90.2272 532.959 88.4145C534.555 87.4478 536.479 86.6746 538.732 86.0961Z" fill="#FCC822"/>
<path d="M285.138 241.076L295.057 199.184L277.018 198.503L267.541 237.174C266.872 239.903 267.028 242.768 267.987 245.408L285.227 292.848L305.874 290.855L285.138 241.076Z" fill="#A7A6BB"/>
<path d="M276.981 235.483C278.821 231.785 280.607 228.479 282.338 225.564C284.734 221.289 287.763 217.662 291.396 214.652L295.059 199.185L277.019 198.504L267.541 237.174C267.074 239.081 267.034 241.05 267.364 242.966C271.393 242.086 275.002 239.464 276.981 235.483Z" fill="#727293"/>
<path d="M302.714 379.274L302.275 381.309L299.969 392.009L289.761 439.367L288.649 444.512L288.401 445.672L286.347 468.165L283.929 468.896C277.79 470.761 271.519 470.358 266.047 468.113C263.806 467.194 261.521 464.956 259.929 463.177C258.125 461.162 256.666 458.848 255.536 456.393C252.29 449.334 251.539 441.293 251.369 433.617C251.311 431.022 251.326 428.427 251.326 425.83V400.383V378.133V370.049C253.201 370.049 255.305 369.814 256.81 369.711C258.165 369.624 260.599 369.17 261.994 369.17C267.464 367.293 273.104 367.807 278.384 367.164C280.891 366.859 283.318 366.713 285.602 366.62C288.786 366.492 291.696 366.682 294.18 367.298C299.389 368.595 302.714 372.015 302.714 379.274Z" fill="#1C1B2D"/>
<path d="M343.664 449.882L289.357 467.254L286.347 468.166L283.929 468.896C277.791 470.761 271.519 470.359 266.047 468.114C264.621 467.312 263.273 466.377 262.026 465.328C262.017 465.322 262.012 465.313 262.003 465.304C257.796 461.422 254.855 456.172 253.842 450.257L285.269 440.727L289.76 439.368L336.451 426.091L343.664 449.882Z" fill="#1C1B2D"/>
<path d="M372.426 453.8C371.727 450.771 370.507 447.02 370.237 445.836C369.2 441.296 367.666 436.863 366.361 432.396C365.884 430.76 365.301 429.63 365.1 429.273C364.999 429.108 365.014 429.117 365.1 429.273C365.246 429.511 365.627 430.099 366.372 431.119C365.008 429.254 363.914 427.498 363.011 425.381C361.994 422.993 361.212 420.602 360.624 418.221L327.05 428.247L334.652 453.708L350.403 449.004C351.376 448.714 352.399 449.266 352.689 450.237L354.31 455.669C354.813 457.351 355.537 458.904 356.41 460.337C357.323 460.019 358.255 459.753 359.209 459.548C363.371 458.651 367.34 457.177 371.324 455.751C371.663 455.088 372.026 454.435 372.426 453.8Z" fill="#361710"/>
<path d="M341.487 432.172C344.437 431.29 347.544 432.969 348.425 435.92C349.306 438.87 347.628 441.977 344.678 442.859C341.728 443.739 338.621 442.061 337.739 439.111C336.859 436.161 338.536 433.054 341.487 432.172Z" fill="white"/>
<path d="M354.455 456.114C357.786 466.394 368.73 472.186 379.138 469.078C380.109 468.787 380.662 467.765 380.372 466.794L375.322 449.883L354.455 456.114Z" fill="white"/>
<path d="M372.338 469.885C374.573 470.007 376.869 469.756 379.139 469.078C380.11 468.788 380.663 467.765 380.373 466.794L365.963 418.545C365.675 417.572 364.651 417.019 363.679 417.31L357.214 419.239L372.338 469.885Z" fill="white"/>
<path d="M343.106 297.679L340.179 303.674L324.843 335.086L299.601 386.789L251.99 367.507L266.568 334.36L277.024 310.598L293.034 274.195L343.106 297.679Z" fill="#A7A6BB"/>
<path d="M334.56 307.977C334.028 307.977 333.023 307.248 331.82 306.23C329.201 320 315.717 330.791 301.716 330.791C289.797 330.791 280.045 323.999 274.962 314.294L264.45 339.179L275.587 356.137C277.947 359.639 282.567 360.814 286.317 358.861L322.723 339.906L338.06 308.496C336.934 308.154 335.752 307.977 334.56 307.977Z" fill="#727293"/>
<path d="M318.992 315.536C316.235 315.536 313.61 315.138 311.115 314.459L280.558 377.047L252.749 365.784L251.991 367.507L299.6 386.79L337.59 308.98C332.261 313.062 325.688 315.536 318.992 315.536Z" fill="#727293"/>
<path d="M352.317 255.856C352.317 255.856 359.706 251.553 362.542 257.468C365.379 263.384 353.875 273.487 346.477 267.056L352.317 255.856Z" fill="#EDAC7C"/>
<path d="M350.103 260.101L347.095 265.867C353.994 270.185 362.393 261.536 359.548 258.729C357.249 256.458 352.359 258.712 350.103 260.101Z" fill="#F7A588"/>
<path d="M359.885 261.353C359.885 261.353 359.89 261.301 359.902 261.205C359.914 261.11 359.921 260.971 359.934 260.8C359.943 260.458 359.924 259.951 359.683 259.496C359.624 259.382 359.543 259.277 359.456 259.181C359.408 259.133 359.363 259.086 359.308 259.038L359.271 259.007L359.27 259.004C359.297 259.031 359.276 259.011 359.28 259.016L359.276 259.011L359.259 259.001L359.236 258.981L359.13 258.904C359.056 258.845 358.995 258.809 358.937 258.775C358.879 258.738 358.813 258.702 358.737 258.666C358.669 258.632 358.596 258.596 358.522 258.571C358.446 258.538 358.373 258.506 358.291 258.485C357.665 258.284 356.923 258.263 356.175 258.346C355.797 258.381 355.423 258.455 355.049 258.532C354.679 258.614 354.31 258.705 353.958 258.803C353.248 259.004 352.588 259.227 352.017 259.419C350.869 259.829 350.103 260.101 350.103 260.101C350.103 260.101 350.248 259.956 350.524 259.724C350.804 259.496 351.211 259.182 351.735 258.855C351.998 258.694 352.286 258.519 352.603 258.358C352.92 258.196 353.263 258.037 353.628 257.891C354.358 257.604 355.176 257.358 356.041 257.264C356.475 257.221 356.917 257.207 357.359 257.256C357.799 257.304 358.239 257.414 358.639 257.591C358.74 257.633 358.836 257.682 358.932 257.735C359.029 257.783 359.117 257.844 359.204 257.903C359.292 257.96 359.377 258.025 359.462 258.098C359.548 258.17 359.63 258.238 359.68 258.299L359.772 258.399L359.829 258.458L359.879 258.519C359.946 258.596 360.001 258.678 360.053 258.763C360.152 258.934 360.226 259.108 360.272 259.279C360.373 259.621 360.363 259.939 360.324 260.202C360.29 260.464 360.213 260.68 360.147 260.848C360.08 261.016 360.007 261.142 359.961 261.227C359.912 261.31 359.885 261.353 359.885 261.353Z" fill="#CF9166"/>
<path d="M307.308 237.228C307.308 237.228 305.122 228.962 298.936 231.143C292.747 233.321 293.745 248.601 303.527 249.281L307.308 237.228Z" fill="#EDAC7C"/>
<path d="M305.874 241.796L303.926 247.999C295.995 246.181 296.166 234.128 300.164 234.151C303.392 234.169 305.26 239.22 305.874 241.796Z" fill="#F7A588"/>
<path d="M298.07 235.768C298.07 235.768 298.101 235.729 298.162 235.653C298.222 235.576 298.311 235.473 298.427 235.344C298.659 235.093 299.031 234.746 299.526 234.596C299.646 234.559 299.776 234.541 299.911 234.535C299.976 234.537 300.043 234.531 300.109 234.539L300.162 234.544H300.165C300.125 234.542 300.158 234.542 300.15 234.542L300.156 234.544L300.174 234.545L300.205 234.55L300.336 234.569C300.428 234.578 300.498 234.599 300.564 234.615C300.632 234.627 300.704 234.65 300.781 234.679C300.855 234.702 300.928 234.73 301.001 234.763C301.075 234.794 301.15 234.824 301.223 234.867C301.809 235.164 302.35 235.676 302.821 236.263C303.061 236.554 303.276 236.871 303.486 237.191C303.69 237.511 303.886 237.835 304.066 238.155C304.424 238.799 304.735 239.422 305.004 239.96C305.526 241.063 305.874 241.797 305.874 241.797C305.874 241.797 305.876 241.588 305.843 241.231C305.81 240.876 305.742 240.361 305.601 239.761C305.529 239.46 305.447 239.133 305.336 238.796C305.226 238.456 305.099 238.101 304.943 237.74C304.631 237.023 304.227 236.272 303.681 235.591C303.407 235.255 303.098 234.932 302.751 234.655C302.406 234.377 302.02 234.144 301.611 233.988C301.51 233.943 301.406 233.913 301.301 233.884C301.199 233.848 301.096 233.826 300.988 233.809C300.889 233.787 300.782 233.774 300.669 233.765C300.558 233.754 300.452 233.747 300.37 233.754L300.24 233.756L300.156 233.759L300.079 233.766C299.976 233.774 299.875 233.794 299.779 233.817C299.591 233.87 299.416 233.94 299.26 234.026C298.949 234.199 298.732 234.432 298.574 234.642C298.41 234.853 298.315 235.058 298.242 235.227C298.17 235.395 298.132 235.534 298.106 235.627C298.082 235.719 298.07 235.768 298.07 235.768Z" fill="#CF9166"/>
<path d="M327.175 268.124L314.992 263.079C314.992 263.079 306.625 281.966 306.58 281.947C306.58 281.947 305.899 286.123 311.271 288.444C316.644 290.765 319.621 287.344 319.621 287.344C319.619 287.22 327.175 268.124 327.175 268.124Z" fill="#EDAC7C"/>
<path d="M323.26 278.264L310.25 273.745C310.25 273.745 307.346 280.393 307.3 280.374C307.3 280.374 306.799 283.711 312.169 286.035C317.542 288.355 320.343 285.482 320.343 285.482C320.342 285.359 323.26 278.264 323.26 278.264Z" fill="#CF9166"/>
<path d="M325.723 271.632L313.539 266.586C313.539 266.586 312.376 268.96 311.377 270.976C311.231 271.266 314.513 273.246 314.868 273.463C317.655 275.171 320.751 276.003 323.959 276.467C324.741 274.304 325.723 271.632 325.723 271.632Z" fill="#CF9166"/>
<path d="M357.631 236.742C346.94 236.742 337.984 231.285 332.582 223.158H303.132C302.589 224.93 302.096 226.86 301.666 229C298.428 245.125 302.655 266.105 318.916 272.836C335.179 279.568 354.27 268.569 360.558 253.377C362.851 247.836 363.214 241.959 361.982 236.397C360.544 236.622 359.09 236.742 357.631 236.742Z" fill="#3E150D"/>
<path d="M357.581 251.708C360.792 243.121 360.459 233.62 353.455 226.873C349.893 223.441 345.407 221.063 340.825 219.253C336.298 217.464 331.389 215.774 326.488 215.653C317.708 215.439 317.186 219.814 313.217 227.226C312.826 227.951 306.211 229.554 305.871 230.302C305.087 232.022 304.242 233.684 303.582 235.461C302.099 239.457 301.093 243.663 300.829 247.931C300.51 253.107 301.368 258.389 303.876 263.025C305.301 265.661 307.221 268.02 309.457 270.029C313.154 273.344 317.065 275.552 321.934 276.591C325.234 277.298 328.64 277.533 331.974 277.094C337.506 276.37 342.507 273.755 346.51 269.996C349.875 266.832 352.543 262.975 354.631 258.883C355.775 256.642 356.793 254.306 357.525 251.9C357.544 251.834 357.559 251.77 357.581 251.708Z" fill="#EDAC7C"/>
<path d="M335.841 249.774C334.753 252.14 335.632 254.869 337.806 255.867C339.981 256.866 342.627 255.755 343.718 253.389C344.809 251.022 343.928 248.296 341.754 247.297C339.578 246.297 336.931 247.407 335.841 249.774Z" fill="#CF9166"/>
<path d="M336.176 248.067C335.084 250.433 335.964 253.16 338.139 254.161C340.316 255.16 342.961 254.049 344.051 251.683C345.143 249.319 344.264 246.588 342.088 245.589C339.913 244.593 337.264 245.701 336.176 248.067Z" fill="black"/>
<path d="M338.061 247.527C337.666 248.384 338.055 249.404 338.927 249.803C339.8 250.204 340.826 249.837 341.221 248.977C341.615 248.121 341.227 247.102 340.356 246.701C339.484 246.301 338.457 246.669 338.061 247.527Z" fill="white"/>
<path d="M311.315 240.709C310.225 243.077 311.104 245.804 313.28 246.802C315.455 247.801 318.102 246.689 319.191 244.326C320.281 241.96 319.402 239.231 317.228 238.232C315.054 237.235 312.405 238.342 311.315 240.709Z" fill="#CF9166"/>
<path d="M311.777 239.706C310.685 242.073 311.567 244.8 313.741 245.8C315.917 246.799 318.562 245.69 319.652 243.322C320.744 240.958 319.863 238.228 317.689 237.23C315.515 236.232 312.865 237.341 311.777 239.706Z" fill="black"/>
<path d="M313.662 239.169C313.268 240.024 313.653 241.044 314.527 241.444C315.399 241.847 316.428 241.477 316.823 240.619C317.216 239.761 316.831 238.742 315.956 238.341C315.085 237.942 314.057 238.311 313.662 239.169Z" fill="white"/>
<path d="M326.845 241.303C326.845 241.303 325.422 250.578 322.817 249.74C317.766 248.125 316.233 259.21 324.61 256.153C327.773 255 329.392 241.729 329.392 241.729L326.845 241.303Z" fill="#F48470"/>
<path d="M310.658 235.711C310.658 235.711 310.816 235.58 311.131 235.408C311.29 235.325 311.486 235.215 311.718 235.127C311.949 235.026 312.215 234.935 312.515 234.847C312.813 234.759 313.141 234.685 313.491 234.626C313.843 234.572 314.22 234.517 314.611 234.51C314.999 234.481 315.402 234.501 315.814 234.526C316.227 234.545 316.638 234.63 317.053 234.685C317.457 234.777 317.866 234.874 318.259 234.988C318.645 235.119 319.024 235.259 319.383 235.403C319.737 235.568 320.071 235.739 320.385 235.903C320.7 236.071 320.973 236.27 321.23 236.437C321.481 236.612 321.716 236.769 321.902 236.943C322.091 237.105 322.251 237.256 322.384 237.377C322.644 237.619 322.782 237.774 322.782 237.774C322.782 237.774 322.576 237.723 322.238 237.613C322.069 237.56 321.863 237.496 321.634 237.414C321.413 237.326 321.148 237.253 320.864 237.164C320.581 237.081 320.29 236.962 319.967 236.873C319.645 236.783 319.311 236.685 318.969 236.577C318.62 236.487 318.263 236.404 317.902 236.3C317.537 236.223 317.169 236.142 316.797 236.064C316.609 236.032 316.423 236.001 316.239 235.97C316.052 235.939 315.87 235.897 315.684 235.881C315.5 235.861 315.317 235.835 315.137 235.808C314.956 235.778 314.779 235.777 314.599 235.754C314.245 235.713 313.901 235.699 313.571 235.677C313.406 235.661 313.249 235.67 313.094 235.661C312.936 235.656 312.786 235.646 312.64 235.65C312.35 235.647 312.08 235.646 311.843 235.653C311.599 235.655 311.391 235.67 311.213 235.674C311.043 235.689 310.899 235.687 310.807 235.701C310.709 235.708 310.658 235.711 310.658 235.711Z" fill="black"/>
<path d="M348.245 243.299C348.245 243.299 348.154 243.115 347.939 242.825C347.826 242.686 347.696 242.505 347.524 242.326C347.353 242.142 347.144 241.947 346.912 241.742C346.679 241.541 346.41 241.339 346.112 241.14C345.811 240.946 345.494 240.741 345.141 240.575C344.798 240.387 344.422 240.237 344.038 240.091C343.656 239.937 343.247 239.846 342.847 239.725C342.438 239.641 342.029 239.56 341.621 239.504C341.214 239.462 340.809 239.434 340.423 239.418C340.035 239.424 339.66 239.438 339.305 239.459C338.952 239.483 338.622 239.55 338.317 239.598C338.014 239.653 337.737 239.7 337.498 239.779C337.257 239.85 337.049 239.922 336.881 239.978C336.539 240.093 336.351 240.173 336.351 240.173C336.351 240.173 336.559 240.215 336.912 240.253C337.089 240.276 337.301 240.301 337.544 240.32C337.785 240.332 338.054 240.374 338.35 240.411C338.641 240.451 338.957 240.465 339.288 240.515C339.618 240.566 339.96 240.616 340.317 240.658C340.671 240.722 341.035 240.793 341.406 240.847C341.77 240.924 342.137 241.006 342.509 241.088C342.692 241.135 342.874 241.183 343.056 241.23C343.236 241.279 343.421 241.315 343.598 241.379C343.773 241.437 343.95 241.489 344.126 241.537C344.304 241.586 344.469 241.657 344.637 241.712C344.978 241.819 345.296 241.949 345.607 242.066C345.763 242.117 345.903 242.191 346.048 242.248C346.194 242.306 346.337 242.361 346.466 242.423C346.73 242.541 346.978 242.649 347.192 242.756C347.412 242.857 347.597 242.957 347.753 243.034C347.904 243.119 348.035 243.178 348.116 243.226C348.2 243.272 348.245 243.299 348.245 243.299Z" fill="black"/>
<path d="M357.908 252.159C357.908 252.159 359.682 249.063 361.405 244.816C359.593 249.112 357.908 252.159 357.908 252.159Z" fill="#CF9166"/>
<path d="M360.282 221.799C358.532 221.973 356.711 221.932 354.961 221.97C350.759 222.062 346.553 221.938 342.349 222.016C339.848 222.062 337.351 222.172 334.857 222.367C334.644 222.383 328.857 222.975 329.037 222.901C324.724 223.489 320.428 224.24 316.13 224.899C314.465 225.155 312.827 225.295 311.208 225.369C316.071 226.398 322.37 226.099 326.763 225.671C326.526 225.744 326.317 225.8 326.061 225.888C321.522 227.43 325.273 232.48 333.236 235.875C344.257 240.573 354.244 238.711 354.244 238.711C354.244 238.711 352.463 241.944 352.076 247.64C351.813 251.539 352.778 256.313 353.412 258.937C353.706 260.145 353.928 260.899 353.928 260.899L352.478 263.504C352.478 263.504 355.682 258.088 361.397 251.039C373.306 236.351 372.052 227.827 369.753 223.683C366.525 223.515 363.317 222.905 360.282 221.799Z" fill="#361710"/>
<path d="M359.507 240.485C359.507 240.485 335.811 241.507 296.254 225.776C277.326 218.25 308.289 217.715 308.289 217.715L344.915 216.876L359.507 240.485Z" fill="#2D2C44"/>
<path d="M364.349 247.393C364.349 247.393 362.963 244.471 359.508 240.486C355.533 235.896 348.82 229.896 338.341 225.329C318.769 216.799 308.288 217.717 308.288 217.717C308.288 217.717 309.882 206.221 325.033 200.501C330.919 198.277 336.982 197.681 342.777 198.625C352.504 200.209 361.483 206.122 367.637 215.949C377.407 231.551 364.349 247.393 364.349 247.393Z" fill="#2D2C44"/>
<path d="M359.508 240.486C355.534 235.895 348.82 229.896 338.342 225.329C318.769 216.798 308.289 217.715 308.289 217.715C308.289 217.715 309.882 206.221 325.033 200.499C330.918 198.276 336.983 197.681 342.778 198.625C347.79 200.801 352.53 204.19 356.691 208.776C367.831 221.06 361.349 236.692 359.508 240.486Z" fill="#A7A6BB"/>
<path d="M356.041 257.264C356.041 257.264 339.808 263.663 333.165 268.553C331.419 269.839 330.484 274.196 324.786 274.196C317.728 274.196 318.839 270.826 314.214 267.634C311.626 265.846 306.137 264.035 304.582 261.791C301.159 256.86 301.184 241 301.184 241C301.184 241 296.479 253.298 300.063 264.969C301.603 269.983 303.559 283.024 320.968 283.667C337.435 284.276 340.003 279.208 343.215 275.897C346.427 272.59 356.041 257.264 356.041 257.264Z" fill="#361710"/>
<path d="M244.475 246.009L251.031 249.27C257.995 252.732 260.833 261.186 257.371 268.151L254.026 274.875C250.563 281.839 242.11 284.678 235.146 281.215L228.589 277.952C221.625 274.49 218.788 266.037 222.25 259.073L225.594 252.349C229.058 245.385 237.511 242.547 244.475 246.009Z" fill="#FCC822"/>
<path d="M260.606 289.347L258.33 284.337C257.762 282.658 257.552 280.881 257.709 279.117L258.722 267.848C258.856 266.377 258.399 264.911 257.454 263.776L248.378 252.872C247.799 252.176 246.706 252.26 246.241 253.037C245.966 253.499 245.997 254.081 246.324 254.509L250.531 260.025L246.631 256.925C245.875 256.326 244.752 256.643 244.424 257.55C244.227 258.09 244.379 258.697 244.806 259.08L250.897 264.58L245.146 260.845C244.354 260.329 243.286 260.688 242.963 261.577C242.721 262.245 242.992 262.99 243.606 263.35L248.888 266.428L243.256 264.547C242.577 264.321 241.839 264.676 241.595 265.35C241.371 265.968 241.635 266.658 242.215 266.968L245.456 268.694C247.606 269.844 248.766 272.254 248.315 274.65L247.261 280.274C246.665 283.463 247.306 286.758 249.055 289.49L251.911 293.951L260.606 289.347Z" fill="#EDAC7C"/>
<path d="M331.924 297.905L292.964 318.766C290.379 320.152 287.163 319.315 285.577 316.848L262.801 281.737L245.848 290.974L278.654 344.627C281.017 348.13 285.634 349.303 289.383 347.352L343.231 319.316C348.565 316.54 351.051 310.267 349.071 304.589C346.62 297.569 338.479 294.395 331.924 297.905Z" fill="#A7A6BB"/>
<path d="M308.928 367.343C308.928 388.567 291.723 405.777 270.492 405.777L233.329 402.46L206.78 400.088V393.892C206.78 379.228 218.667 367.343 233.329 367.343H308.928Z" fill="#2D2C44"/>
<path d="M232.566 367.345V470.472L209.275 465.654L206.304 393.894C206.304 379.229 217.559 367.345 232.566 367.345Z" fill="#2D2C44"/>
<path d="M192.79 451.97C181.987 452.22 173.305 461.048 173.305 471.912C173.305 472.926 174.127 473.748 175.141 473.748H192.79V451.97Z" fill="white"/>
<path d="M206.948 433.682V450.122C206.948 451.135 206.125 451.957 205.113 451.957H193.258C192.648 451.957 192.046 451.986 191.449 452.039V468.042H233.519V433.682H206.948Z" fill="#361710"/>
<path d="M225.628 446.395C225.628 449.473 223.131 451.97 220.053 451.97C216.973 451.97 214.477 449.473 214.477 446.395C214.477 443.315 216.973 440.818 220.053 440.818C223.131 440.818 225.628 443.315 225.628 446.395Z" fill="white"/>
<path d="M174.478 465.164C173.721 467.271 173.304 469.542 173.304 471.911C173.304 472.925 174.127 473.746 175.141 473.746H231.683C232.697 473.746 233.52 472.925 233.52 471.911V465.164H174.478Z" fill="white"/>
<path d="M346.368 68.5218C363.403 76.9923 373.256 89.5137 375.924 106.078C378.078 119.175 375.924 132.222 369.458 145.223C358.644 166.968 338.513 182.75 309.066 192.571C298.798 195.993 291.184 202.133 286.22 210.987C284.489 213.902 282.704 217.206 280.865 220.908C277.401 227.87 268.948 230.709 261.984 227.246L255.426 223.984C248.464 220.522 245.625 212.068 249.087 205.106C258.954 185.265 271.158 172.953 285.705 168.162C301.422 162.976 313.973 155.868 323.361 146.834C328.779 141.559 333.246 135.394 336.757 128.331C340.38 121.046 341.596 114.522 340.409 108.758C339.215 102.155 334.982 97.602 327.699 95.0977C320.921 92.7065 314.122 94.8464 307.308 101.523C306.969 101.845 306.632 102.175 306.297 102.515C301.398 107.49 293.573 108.085 287.955 103.94L282.448 99.8788C275.63 94.8494 274.745 84.9572 280.589 78.8244C286.395 72.7288 293.063 68.0697 300.595 64.8427C308.758 61.354 318.107 60.5495 328.638 62.4307C334.179 63.3705 340.09 65.3989 346.368 68.5218Z" fill="#FCC822"/>
<path d="M319.083 269.204C319.542 269.204 319.938 268.892 320.054 268.447C320.512 266.675 322.11 265.361 324.027 265.361C325.946 265.361 327.543 266.675 328.001 268.447C328.115 268.892 328.512 269.204 328.972 269.204C329.616 269.204 330.124 268.602 329.967 267.976C329.296 265.312 326.9 263.338 324.027 263.338C321.154 263.338 318.758 265.312 318.088 267.976C317.93 268.602 318.437 269.204 319.083 269.204Z" fill="#F05B4E"/>
<path d="M336.924 267.429C335.988 262.98 332.838 259.304 328.616 257.696C327.822 257.394 326.921 257.537 326.292 258.105C325.593 258.734 324.831 259.408 324.027 259.408C323.182 259.408 322.384 258.698 321.656 258.041C321.036 257.481 320.156 257.324 319.368 257.608C315.564 258.974 312.535 262.027 311.223 265.918C310.817 267.123 311.407 268.518 312.625 268.884C313.818 269.24 314.996 268.571 315.354 267.454C316.574 263.653 320.214 260.999 324.384 261.24C328.555 261.481 331.865 264.537 332.639 268.451C332.833 269.434 333.657 270.161 334.655 270.219H334.657C336.123 270.219 337.226 268.864 336.924 267.429Z" fill="#361710"/>
<path d="M251.99 367.509C251.99 367.509 279.846 368.252 291.977 378.544C304.105 388.835 306.863 389.019 306.863 389.019C306.863 389.019 308.623 368.309 315.187 354.862C321.753 341.417 313.479 345.097 311.825 347.117C310.171 349.138 289.404 366.584 289.404 366.584L285.295 367.345L251.99 367.509Z" fill="#727293"/>
<path d="M417.172 163.795C417.172 163.795 415.337 170.833 418.357 172.439C421.381 174.047 429.106 174.889 429.183 172.439C429.259 169.992 431.402 167.62 427.577 165.936C423.751 164.254 419.238 163.795 419.238 163.795H417.172Z" fill="#C9BDBD"/>
<path d="M491.124 81.2747C491.045 81.2895 490.967 81.3059 490.888 81.3237C490.265 81.4576 489.899 81.584 489.899 81.584V81.6122C489.752 81.6658 489.601 81.7133 489.457 81.7773C481.414 85.3731 481.414 92.7327 481.414 92.7327L486.377 107.454C486.377 107.454 487.765 107.52 489.842 107.33L489.698 173.998L490.419 174.412C495.807 177.503 502.429 177.517 507.827 174.443L508.613 173.998C508.613 173.998 509.576 147.216 509.933 110.814C510.238 79.8292 495.514 80.4151 491.124 81.2747Z" fill="#161616"/>
<path d="M479.409 91.7849L482.383 87.8634C482.761 87.3667 483.458 87.2493 483.971 87.6032C487.219 89.8353 497.809 97.937 496.363 107.692L479.409 91.7849Z" fill="white"/>
<path d="M466.926 153.945C466.932 153.906 469.965 153.566 470.148 153.533C472.801 153.045 475.405 152.247 477.877 151.167C485.516 147.827 491.39 141.664 494.296 133.833C496.381 128.209 496.967 122.124 496.739 116.162C496.407 107.418 494.388 97.8635 486.688 92.5189C480.13 87.9699 476.918 89.3514 476.918 89.3514C476.918 89.3514 466.929 153.923 466.926 153.945Z" fill="#161616"/>
<path d="M468.711 142.744L455.354 141.896C455.354 141.896 453.516 162.779 453.465 162.776C453.465 162.776 454.182 167.008 460.102 167.478C466.024 167.944 467.762 163.68 467.762 163.68C467.719 163.561 468.711 142.744 468.711 142.744Z" fill="#F8D0B7"/>
<path d="M460.581 158.924C456.197 158.577 454.607 157.042 454.076 156.269C454.629 150.141 455.354 141.896 455.354 141.896L468.711 142.744C468.711 142.744 468.332 150.719 468.052 156.827C467.689 157.303 465.82 159.335 460.581 158.924Z" fill="#EFBDAC"/>
<path d="M462.998 149.421L449.641 148.573C449.641 148.573 449.301 151.235 449.004 153.497C448.959 153.826 452.76 154.65 453.174 154.742C456.41 155.466 459.656 155.25 462.891 154.642C462.932 152.309 462.998 149.421 462.998 149.421Z" fill="#CF9166"/>
<path d="M433.507 111.18C433.882 108.496 434.166 106.22 436.325 103.683C441.605 97.4836 450.031 93.9443 458.119 93.9577C470.286 93.9785 482.903 98.642 486.155 111.37C487.269 115.729 487.296 120.3 486.864 124.779C486.186 131.843 484.295 138.983 480.033 144.657C474.925 151.456 466.485 155.623 457.982 155.544C444.997 155.424 434.605 148.446 431.112 137.119C428.597 128.965 430.945 122.578 432.886 114.649C433.192 113.398 433.357 112.256 433.507 111.18Z" fill="#F8D0B7"/>
<path d="M491.392 126.255C491.421 126.293 491.458 126.347 491.458 126.347C491.458 126.347 491.453 126.29 491.439 126.186C491.423 126.085 491.4 125.926 491.335 125.733C491.268 125.542 491.179 125.303 490.999 125.049C490.823 124.794 490.572 124.507 490.175 124.269C489.98 124.147 489.75 124.042 489.496 123.953C489.368 123.911 489.234 123.872 489.094 123.847L488.988 123.825L488.871 123.807L488.69 123.78C488.578 123.759 488.428 123.749 488.272 123.743C488.114 123.731 487.962 123.728 487.818 123.734C487.668 123.735 487.518 123.74 487.367 123.758C487.217 123.773 487.066 123.787 486.917 123.816C486.744 123.844 486.578 123.893 486.408 123.935C486.422 122.793 486.383 121.651 486.27 120.519C487.75 120.309 489.406 120.453 491.243 121.224C498.982 124.475 495.151 139.313 482.939 139.93C483.254 139.274 483.538 138.608 483.803 137.934C490.345 136.037 492.752 129.593 491.392 126.255Z" fill="#F8D0B7"/>
<path d="M487.597 124.755C487.707 124.731 487.815 124.717 487.925 124.704C488.037 124.685 488.141 124.676 488.238 124.671C488.333 124.664 488.432 124.656 488.565 124.662L488.749 124.664L488.795 124.665H488.818H488.829C488.819 124.664 488.861 124.668 488.807 124.662H488.812L488.883 124.668C488.981 124.673 489.072 124.688 489.164 124.698C489.347 124.728 489.524 124.771 489.686 124.832C490.34 125.082 490.783 125.517 491.053 125.827C491.186 125.984 491.291 126.111 491.356 126.206C491.378 126.237 491.377 126.233 491.392 126.254C492.752 129.592 490.345 136.036 483.803 137.932C485.051 134.755 485.787 131.394 486.154 128.049C486.26 127.089 486.336 126.127 486.379 125.161C486.673 125.036 486.968 124.903 487.268 124.827C487.377 124.795 487.487 124.775 487.597 124.755Z" fill="#FFB7A1"/>
<path d="M487.368 123.758C487.518 123.739 487.669 123.734 487.817 123.733C487.963 123.727 488.113 123.73 488.271 123.742C488.429 123.749 488.579 123.759 488.69 123.78L488.87 123.807L488.988 123.825L489.093 123.847C489.233 123.872 489.368 123.911 489.496 123.953C489.751 124.04 489.98 124.148 490.176 124.269C490.571 124.507 490.823 124.793 491 125.049C491.18 125.303 491.269 125.541 491.334 125.733C491.4 125.926 491.424 126.084 491.44 126.186C491.452 126.29 491.458 126.345 491.458 126.345C491.458 126.345 491.421 126.293 491.392 126.255C491.376 126.234 491.379 126.238 491.355 126.206C491.291 126.112 491.186 125.986 491.053 125.828C490.783 125.519 490.341 125.083 489.685 124.833C489.525 124.772 489.346 124.729 489.165 124.699C489.071 124.689 488.98 124.674 488.884 124.67L488.812 124.664H488.808C488.86 124.67 488.818 124.665 488.829 124.667H488.818H488.794L488.75 124.665L488.565 124.662C488.431 124.656 488.332 124.665 488.237 124.672C488.14 124.677 488.037 124.686 487.924 124.705C487.814 124.719 487.706 124.732 487.596 124.756C487.487 124.777 487.376 124.796 487.269 124.829C486.967 124.904 486.674 125.037 486.378 125.162C486.397 124.754 486.405 124.345 486.409 123.935C486.579 123.893 486.745 123.844 486.916 123.816C487.065 123.788 487.218 123.773 487.368 123.758Z" fill="#FFA792"/>
<path d="M452.283 124.302C452.283 124.302 452.622 130.142 449.914 129.516C444.671 128.312 444.06 139.652 452.273 135.851C455.373 134.418 454.896 124.52 454.896 124.52L452.283 124.302Z" fill="#F48470"/>
<path d="M443.232 139.794C443.078 142.227 440.948 144.072 438.474 143.914C435.999 143.757 434.117 141.659 434.268 139.226C434.424 136.793 436.555 134.949 439.03 135.105C441.504 135.263 443.387 137.361 443.232 139.794Z" fill="#FFB7A1"/>
<path d="M475.552 138.997C475.397 141.431 473.266 143.275 470.788 143.117C468.317 142.961 466.436 140.864 466.587 138.432C466.744 135.999 468.873 134.155 471.346 134.311C473.822 134.467 475.706 136.567 475.552 138.997Z" fill="#FFB7A1"/>
<path d="M435.261 120.753C435.261 120.753 435.388 120.588 435.663 120.347C435.8 120.228 435.969 120.076 436.18 119.936C436.386 119.786 436.629 119.634 436.906 119.481C437.181 119.328 437.491 119.178 437.822 119.043C438.16 118.912 438.518 118.772 438.905 118.677C439.284 118.562 439.687 118.491 440.099 118.424C440.512 118.35 440.938 118.342 441.36 118.303C441.782 118.305 442.208 118.308 442.622 118.333C443.036 118.376 443.442 118.43 443.829 118.491C444.215 118.577 444.585 118.671 444.932 118.761C445.283 118.86 445.597 118.993 445.888 119.103C446.178 119.219 446.444 119.321 446.667 119.451C446.892 119.57 447.085 119.683 447.243 119.774C447.554 119.956 447.725 120.076 447.725 120.076C447.725 120.076 447.509 120.073 447.151 120.04C446.972 120.025 446.755 120.008 446.508 119.978C446.269 119.941 445.989 119.927 445.689 119.904C445.391 119.884 445.075 119.832 444.737 119.816C444.398 119.798 444.046 119.779 443.683 119.746C443.317 119.736 442.945 119.734 442.563 119.713C442.185 119.718 441.803 119.721 441.418 119.727C441.225 119.736 441.033 119.747 440.844 119.758C440.652 119.77 440.462 119.768 440.276 119.794C440.087 119.814 439.901 119.831 439.717 119.846C439.529 119.854 439.354 119.895 439.172 119.914C438.813 119.951 438.469 120.014 438.137 120.064C437.971 120.086 437.815 120.131 437.66 120.156C437.504 120.186 437.352 120.21 437.209 120.249C436.922 120.31 436.655 120.369 436.421 120.43C436.18 120.485 435.977 120.547 435.801 120.592C435.638 120.646 435.495 120.675 435.407 120.71C435.31 120.738 435.261 120.753 435.261 120.753Z" fill="#161616"/>
<path d="M470.724 118.812C470.724 118.812 470.592 118.651 470.311 118.416C470.167 118.306 469.996 118.157 469.783 118.024C469.57 117.881 469.319 117.737 469.042 117.591C468.763 117.448 468.449 117.311 468.109 117.185C467.765 117.066 467.404 116.938 467.016 116.858C466.633 116.752 466.227 116.694 465.814 116.641C465.399 116.58 464.974 116.586 464.551 116.56C464.126 116.575 463.705 116.593 463.29 116.633C462.877 116.688 462.472 116.755 462.086 116.831C461.704 116.928 461.338 117.033 460.993 117.136C460.651 117.243 460.34 117.389 460.05 117.506C459.763 117.632 459.501 117.746 459.284 117.879C459.064 118.006 458.874 118.126 458.722 118.221C458.411 118.415 458.246 118.54 458.246 118.54C458.246 118.54 458.46 118.532 458.819 118.486C458.997 118.467 459.214 118.441 459.458 118.404C459.699 118.357 459.974 118.336 460.274 118.3C460.57 118.273 460.887 118.212 461.226 118.183C461.564 118.156 461.913 118.123 462.275 118.079C462.639 118.059 463.015 118.043 463.394 118.009C463.772 118 464.154 117.994 464.539 117.983C464.731 117.988 464.923 117.992 465.115 117.997C465.302 118.003 465.493 117.995 465.683 118.018C465.87 118.033 466.058 118.041 466.242 118.047C466.428 118.053 466.61 118.086 466.788 118.099C467.151 118.125 467.494 118.177 467.829 118.218C467.996 118.23 468.152 118.273 468.308 118.293C468.465 118.317 468.619 118.337 468.761 118.367C469.05 118.422 469.321 118.471 469.555 118.526C469.798 118.572 470.003 118.627 470.176 118.666C470.347 118.717 470.488 118.742 470.58 118.772C470.674 118.795 470.724 118.812 470.724 118.812Z" fill="#050607"/>
<path d="M462.23 124.536C461.778 126.205 462.77 127.896 464.44 128.314C466.11 128.731 467.829 127.719 468.276 126.049C468.729 124.382 467.74 122.688 466.068 122.27C464.398 121.854 462.679 122.868 462.23 124.536Z" fill="#050607"/>
<path d="M463.488 123.978C463.326 124.582 463.736 125.208 464.407 125.374C465.076 125.544 465.751 125.19 465.915 124.585C466.077 123.981 465.665 123.355 464.996 123.188C464.326 123.019 463.651 123.374 463.488 123.978Z" fill="white"/>
<path d="M444.475 123.81C444.925 125.478 443.935 127.17 442.265 127.588C440.594 128.006 438.876 126.993 438.427 125.323C437.976 123.655 438.965 121.963 440.637 121.545C442.307 121.128 444.026 122.143 444.475 123.81Z" fill="#050607"/>
<path d="M443.216 123.251C443.38 123.855 442.968 124.481 442.299 124.648C441.628 124.817 440.953 124.463 440.791 123.857C440.627 123.254 441.039 122.628 441.709 122.462C442.378 122.292 443.054 122.648 443.216 123.251Z" fill="white"/>
<path d="M473.43 110.242C473.43 110.242 483.906 142.302 474.321 151.888C474.321 151.888 488.243 144.258 489.51 109.269L473.43 110.242Z" fill="#161616"/>
<path d="M487.551 116.923C491.149 116.344 491.4 101 490.854 98.9094C488.977 91.7178 478.711 87.2996 472.442 84.9485C462.568 81.2471 450.155 80.6389 441.224 87.0527C436.438 90.4924 434.089 95.3314 431.857 100.606C431.445 101.579 426.985 113.841 426.958 113.841C426.96 113.841 460.959 115.572 460.691 115.557L463.905 115.721C463.905 115.721 485.022 117.329 487.551 116.923Z" fill="#161616"/>
<path d="M514.267 212.311H514.046C511.448 212.323 508.918 213.236 506.676 214.576C509.058 217.696 511.733 220.57 515.174 222.569C515.402 222.701 515.62 222.816 515.833 222.923C516.276 222.411 516.691 221.877 517.059 221.306C519.447 217.611 519.786 212.396 514.267 212.311Z" fill="#E8B79E"/>
<path d="M438.913 306.972C438.913 306.972 440.618 359.296 440.731 364.167C440.844 369.038 447.617 412.645 448.437 423.33C449.258 434.016 446.324 455.969 443.946 464.722L441.059 472.147C441.059 472.147 450.318 475.851 453.917 474.239C459.578 471.699 460.714 462.702 462.14 457.41C463.651 451.797 464.771 445.984 464.532 440.146C464.3 434.532 461.215 430.27 460.041 424.918C456.839 410.343 462.291 395.264 463.068 380.682C463.763 367.671 462.014 354.692 460.067 341.858C458.25 329.888 463.791 319.288 463.219 307.449C463.219 307.449 441.141 291.723 438.665 304.493" fill="#EFC8B1"/>
<path d="M442.925 467.342C442.782 467.986 444.672 468.669 445.101 468.862C448.219 470.275 453.165 471.639 455.733 468.473C458.87 464.62 459.589 457.934 460.919 453.28C462.422 448.013 463.987 441.956 463.521 436.424L463.301 433.817C463.301 433.817 470.637 438.299 470.176 444.521C469.714 450.745 463.456 461.178 463.065 467.687C462.824 471.698 460.873 475.687 457.597 478.069C452.59 481.709 443.942 481.451 438.589 478.705C436.609 477.69 435.048 472.971 437.641 471.778C440.874 470.293 446.104 455.096 445.559 454.585L443.945 464.721C443.945 464.721 442.925 467.336 442.925 467.342Z" fill="#122738"/>
<path d="M469.829 446.06C469.829 446.06 467.75 459.455 468.751 466.95L466.569 467.67L464.393 457.62L469.829 446.06Z" fill="#312E2F"/>
<path d="M488.563 446.06C488.563 446.06 486.807 466.113 487.809 473.61L484.62 473.699L483.127 457.62L488.563 446.06Z" fill="#0C1B26"/>
<path d="M455.506 306.972C455.506 306.972 459.351 359.296 459.464 364.167C459.577 369.038 466.35 412.645 467.17 423.33C467.991 434.016 465.057 455.969 462.679 464.722L459.793 472.147C459.793 472.147 469.053 475.851 472.65 474.239C478.312 471.699 479.448 462.702 480.874 457.41C482.385 451.797 483.505 445.984 483.265 440.146C483.035 434.532 479.949 430.27 478.773 424.918C475.572 410.343 481.024 395.264 481.802 380.682C482.496 367.671 480.748 354.692 478.801 341.858C476.984 329.888 482.525 319.288 481.952 307.449C481.952 307.449 457.735 291.723 455.257 304.493" fill="#F8D0B7"/>
<path d="M461.659 467.342C461.516 467.986 463.406 468.669 463.835 468.862C466.953 470.275 471.899 471.639 474.467 468.473C477.605 464.62 478.323 457.934 479.651 453.28C481.156 448.013 482.721 441.956 482.255 436.424L482.035 433.817C482.035 433.817 489.371 438.299 488.91 444.521C488.447 450.745 482.19 461.178 481.799 467.687C481.558 471.698 479.608 475.687 476.331 478.069C471.324 481.709 462.676 481.451 457.323 478.705C455.343 477.69 453.782 472.971 456.375 471.778C459.608 470.293 464.838 455.096 464.293 454.585L462.679 464.721C462.679 464.721 461.66 467.336 461.659 467.342Z" fill="#122738"/>
<path d="M479.982 194.55C481.804 185.949 488.172 177.155 488.561 175.224C478.522 165.195 469.562 161.633 467.453 160.976L454.971 161.031C451.631 162.388 448.265 163.679 444.915 165.009C443.655 165.507 442.479 165.77 441.685 166.866C440.712 168.207 440.217 170.507 439.576 172.062C437.823 176.314 436.019 180.629 435.154 185.186C434.594 188.127 435.29 191.296 436.482 194.55H479.982Z" fill="#F8D0B7"/>
<path d="M492.484 260.263C488.521 248.923 483.174 237.972 481.175 226.044C474.227 228.99 447.809 228.09 442.659 223.535C441.532 238.355 433.931 252.523 430.322 266.952C428.066 275.97 426.184 285.139 425.845 294.452C425.494 304.195 429.005 333.768 429.718 344.652C458.332 363.166 490.849 345.409 492.145 342.051C498.944 324.448 498.613 298.116 496.931 279.152C496.351 272.6 494.62 266.375 492.484 260.263Z" fill="#122738"/>
<path d="M430.321 266.952C430.171 267.548 430.03 268.149 429.884 268.747C440.053 274.188 479.683 277.463 494.653 267.121C494.011 264.813 493.276 262.529 492.484 260.263C488.677 249.37 483.601 238.831 481.434 227.446L475.375 227.307C469.114 228.031 460.092 227.854 452.97 226.8L444.653 226.611C444.653 226.611 441.656 249.321 432.006 261.038C431.389 263.006 430.815 264.977 430.321 266.952Z" fill="#0B1C28"/>
<path d="M454.055 182.653C454.029 182.225 453.977 181.808 453.921 181.391C453.91 181.321 453.9 181.254 453.888 181.182C453.156 176.281 450.352 172.179 446.747 169.445C442.22 166.17 437.399 163.349 432.654 160.415C423.126 154.633 414.956 149.979 405.317 144.378C402.329 138.864 399.295 133.384 396.137 127.992C394.541 125.297 392.947 122.604 391.153 120.046C389.134 117.691 387.662 114.963 386.221 112.154C383.311 106.594 380.803 100.663 376.799 95.8646C374.611 93.3484 372.23 91.0568 369.739 88.8976C369.964 89.2872 377.505 102.439 376.732 115.618C376.732 115.618 376.717 115.622 376.706 115.625C377.61 116.158 378.509 116.718 379.414 117.249L380.391 117.841L380.879 118.137C381.061 118.231 381.215 118.342 381.211 118.442C381.464 118.968 381.715 119.86 381.938 120.599C382.836 123.719 383.763 126.85 384.86 129.891C387.045 135.964 389.781 141.816 393.573 146.814C395.468 149.295 397.597 151.622 400.027 153.518C402.414 155.448 404.838 157.331 407.278 159.188C412.165 162.898 415.711 165.477 420.824 168.865C425.943 172.243 431.168 175.469 436.621 178.312C442.13 181.049 447.761 183.624 454.084 184.585C454.089 184.475 454.076 184.369 454.078 184.259C454.096 183.953 454.107 183.398 454.055 182.653Z" fill="#EFC8B1"/>
<path d="M373.188 95.9103C373.017 97.8078 371.96 102.653 371.243 104.376C369.881 104.171 368.546 103.609 367.363 102.897C366.05 102.15 365.041 101.047 363.775 100.073C363.137 99.6102 362.448 99.2013 361.668 98.9336C360.883 98.7254 359.993 98.4711 358.955 99.1328C358.835 99.2265 358.665 99.3678 358.588 99.637C358.487 99.9195 358.566 100.003 358.566 100.189C358.634 100.441 358.729 100.651 358.832 100.837C359.042 101.206 359.272 101.539 359.517 101.85C360.004 102.479 360.527 103.057 361.061 103.622C363.155 105.904 365.516 107.913 367.685 110.056L369.285 111.727C369.862 112.3 370.537 112.738 371.236 113.106C372.635 113.842 374.136 114.291 375.493 114.933C375.98 115.182 376.454 115.47 376.931 115.756V101.231C375.08 100.681 374.82 96.8516 373.188 95.9103Z" fill="#EFC8B1"/>
<path d="M420.873 153.406C420.873 153.406 423.408 157.523 422.605 165.783C421.802 174.046 418.358 172.44 418.358 172.44C418.358 172.44 426.965 178.98 435.571 183.571C444.178 188.161 443.833 166.243 443.833 166.243C443.833 166.243 421.78 150.668 420.873 153.406Z" fill="white"/>
<path d="M442.49 226.024C442.459 226.611 442.199 227.353 442.614 227.639C455.835 236.731 481.473 227.246 481.29 226.121C480.401 220.696 480.256 215.094 481.299 209.679C483.644 197.486 492.643 185.67 488.705 172.838C488.69 172.793 488.676 172.747 488.66 172.702C487.335 168.75 474.275 164.167 473.138 163.43C473.521 164.434 472.467 165.593 472.106 166.045C470.326 168.259 467.525 169.642 464.852 170.427C461.748 171.34 458.491 171.709 455.261 171.584C453.45 171.513 451.631 171.281 449.854 170.918C448.764 170.696 447.418 170.348 446.691 169.452C445.354 167.805 446.618 165.41 447.444 163.816C447.444 163.816 445.863 164.407 443.836 164.446C441.32 164.494 433.623 159.389 433.623 159.389C432.205 163.752 434.374 181.114 432.687 185.341C431.625 188.002 431.069 190.931 431.588 193.749C432.428 198.303 435.837 201.766 437.297 206.08C439.15 211.557 442.805 220.059 442.49 226.024Z" fill="white"/>
<path d="M441.999 220.798C441.999 220.798 438.291 248.944 425.821 258.737C416.485 266.067 474.943 274.393 492.742 260.773C493.499 260.191 493.611 259.086 492.992 258.359C492.01 257.204 490.5 254.808 488.56 249.839C484.954 240.605 480.743 221.675 480.743 221.675L441.999 220.798Z" fill="white"/>
<path d="M520.413 222.655C519.464 223.845 517.823 224.108 515.176 222.569C511.596 220.488 508.84 217.466 506.387 214.201C503.258 210.037 499.536 206.343 495.976 202.529C491.168 197.377 486.125 192.318 481.713 186.82C478.108 182.332 475.235 178.922 476.918 172.657C477.174 171.703 477.546 170.752 478.2 170.003C479.192 168.864 480.767 168.569 482.204 168.74C485.785 169.17 488.18 171.691 490.427 174.199C492.768 176.812 495.369 179.218 497.821 181.73C503.057 187.098 508.176 192.628 512.493 198.768C515.308 202.772 518.307 206.733 520.258 211.259C522.241 215.86 522.349 220.231 520.413 222.655Z" fill="#EFC8B1"/>
<path d="M514.267 212.311H514.046C511.448 212.323 508.918 213.236 506.676 214.576C509.058 217.696 511.733 220.57 515.174 222.569C515.402 222.701 515.62 222.816 515.833 222.923C516.276 222.411 516.691 221.877 517.059 221.306C519.447 217.611 519.786 212.396 514.267 212.311Z" fill="#E8B79E"/>
<path d="M516.733 213.472C516.66 213.482 516.586 213.493 516.513 213.503C513.622 213.94 510.981 215.491 508.802 217.45C504.17 221.614 500.359 227.083 496.211 231.75C492.981 235.383 489.748 239.408 486.178 242.934C486.401 243.172 486.591 243.44 486.732 243.751C488.127 246.838 488.648 248.755 490.569 251.547C494.047 245.3 508.603 236.254 516.699 227.62C518.297 225.913 519.829 224.096 520.8 221.968C522.626 217.966 522.206 212.755 516.733 213.472Z" fill="#EFC8B1"/>
<path d="M485.973 247.978C485.967 247.987 482.034 252.53 481.276 252.454C480.517 252.378 479.518 251.404 479.518 251.404L484.677 244.688C484.677 244.688 479.235 249.843 477.913 249.929C476.59 250.017 475.602 248.934 475.602 248.934L482.571 241.632C482.571 241.632 477.977 247.089 476.395 247.587C474.811 248.088 473.596 247.09 473.596 247.09L480.327 238.89L480.087 240.181C480.087 240.181 476.771 242.697 475.48 242.459C474.191 242.221 473.171 241.463 473.171 241.463C473.171 241.463 476.704 238.968 478.526 237.177C480.346 235.388 482.178 235.68 482.178 235.68C485.438 238.376 487.462 242.489 489.542 246.15C491.15 248.98 491.193 254.402 491.193 254.402C491.193 254.402 490.182 256.233 485.973 247.978Z" fill="#F8D0B7"/>
<path d="M436.571 109.917C436.571 109.917 430.788 121.047 431.112 137.119C431.112 137.119 420.289 122.959 434.413 102.727L436.571 109.917Z" fill="#161616"/>
<path d="M493.34 203.041C493.34 203.041 506.217 201.206 508.824 191.565C508.824 191.565 490.181 170.161 482.136 167.513C474.091 164.866 470.571 174.123 474.397 180.626C478.222 187.129 493.34 203.041 493.34 203.041Z" fill="white"/>
<path d="M432.851 184.842C432.851 184.842 433.408 182.046 435.645 178.948C437.883 175.849 433.395 177.762 429.053 179.772C429.053 179.772 432.881 181.906 432.875 183.285C432.872 184.06 432.851 184.842 432.851 184.842Z" fill="#E1E4E5"/>
<path d="M452.938 143.8C453.397 143.8 453.793 143.488 453.909 143.043C454.367 141.269 455.964 139.957 457.882 139.957C459.799 139.957 461.398 141.269 461.856 143.043C461.97 143.488 462.367 143.8 462.827 143.8C463.471 143.8 463.979 143.198 463.822 142.572C463.151 139.908 460.755 137.933 457.882 137.933C455.009 137.933 452.613 139.908 451.943 142.572C451.785 143.198 452.292 143.8 452.938 143.8Z" fill="#F05B4E"/>
</svg>
